# xmcd
#
# Track frame offsets: 
#        150
#        19861
#        36194
#        58174
#        78090
#        100368
#        125810
#        145929
#        167823
#        194299
#
# Disc length: 2833 seconds
#
# Revision: 0
# Processed by: cddbd v1.5.2PL0 Copyright (c) Steve Scherf et al.
# Submitted via: ExactAudioCopyFreeDBPlugin 1.0
#
DISCID=8a0b0f0a
DTITLE=一十三十一 - CITY DIVE
DYEAR=2012
DGENRE=JPop
TTITLE0=DIVE
TTITLE1=ギャラクティックにさせて
TTITLE2=恋は思いのまま
TTITLE3=ハーバーライト
TTITLE4=人魚になりたい
TTITLE5=サマーブリーズ '86
TTITLE6=サマータイムにくちづけて
TTITLE7=摩天楼の恋人
TTITLE8=RAINBOW
TTITLE9=グラスに浮かべたノンシャラン
EXTD=
EXTT0=
EXTT1=
EXTT2=
EXTT3=
EXTT4=
EXTT5=
EXTT6=
EXTT7=
EXTT8=
EXTT9=
PLAYORDER=
